# Blender v2.80 (sub 35) OBJ File: 'Concept stanza.blend'
# www.blender.org
mtllib Mura.mtl
o Pomello_comodino.000_Sphere.000
v 7.130309 -0.405448 -1.252625
v 7.130309 -0.405447 2.126370
v -7.130509 -0.335537 3.193167
v -7.130509 7.402000 3.193167
v -7.130509 -0.335537 -5.640934
v -7.130509 7.402000 -5.640934
v 7.130510 -0.335537 2.254499
v 7.130510 4.394607 2.254498
v -7.330548 -0.474046 -5.798650
v -7.375507 -0.505176 3.193168
v -7.375506 7.571639 3.193168
v -7.330549 7.540510 -5.798651
v 7.330550 7.540510 -5.798651
v 7.375506 7.571639 3.193167
v 7.130511 7.401999 -5.640934
v 7.130510 -0.335537 -5.640934
v 7.130510 7.402000 3.193167
v 7.352693 -0.505176 -1.369867
v 7.352691 4.401829 -1.369868
v 7.130510 -0.335537 -1.365424
v 7.370759 -0.505981 2.243612
v 7.370759 4.401829 2.243611
v 7.130510 -0.335537 3.193168
v 7.130510 -0.335537 2.141701
v 7.130510 4.298864 -1.252626
v 7.130509 -0.335537 -1.252625
v 7.130510 4.298864 2.126370
v 7.130509 4.397926 -1.365424
v 7.330548 -0.474047 -5.798651
v 7.375507 -0.505175 3.193167
v 7.353278 -0.505176 -1.252625
v 7.353278 4.298864 -1.252626
v 7.370174 4.298864 2.126369
v 7.370173 -0.505176 2.126370
v 6.974000 4.295547 2.141700
v 6.974000 -0.335537 2.141701
v 7.485970 -0.505176 -1.253216
v 7.485969 4.298864 -1.253216
v 6.973999 -0.335537 -1.252625
v 7.500320 4.298864 2.125779
v 7.500321 -0.505176 2.125780
v 6.973999 4.298864 -1.252626
v 6.973999 -0.335537 2.254499
v 6.974000 4.397925 -1.365424
v 6.974000 -0.335537 -1.365424
v 6.974000 4.397918 2.239177
v 7.485472 -0.505176 -1.370457
v 7.485471 4.401829 -1.370459
v 7.500820 4.401829 2.243021
v 7.500818 -0.505982 2.243022
v -0.709540 2.176734 -5.643144
v -0.747411 2.161917 -5.617876
v -0.711393 2.176009 -5.635301
v -0.716772 2.173905 -5.628238
v -0.725150 2.170626 -5.622648
v -0.735708 2.166496 -5.619078
v 0.759114 2.161915 -5.618050
v 0.721308 2.176734 -5.643319
v 0.747431 2.166495 -5.619253
v 0.736892 2.170625 -5.622822
v 0.728528 2.173904 -5.628413
v 0.723158 2.176009 -5.635476
v 0.759094 4.565151 -5.617876
v 0.721308 4.548327 -5.643144
v 0.747416 4.559952 -5.619078
v 0.736883 4.555263 -5.622648
v 0.728524 4.551540 -5.628238
v 0.723157 4.549150 -5.635301
v -0.743571 4.563707 -5.821716
v -0.709540 4.548327 -5.796431
v -0.733055 4.558955 -5.820510
v -0.723568 4.554667 -5.816935
v -0.716039 4.551265 -5.811340
v -0.711205 4.549080 -5.804276
v -0.747391 4.565150 -5.617876
v -0.709540 4.548327 -5.643144
v -0.735694 4.559951 -5.619078
v -0.725142 4.555262 -5.622647
v -0.716768 4.551540 -5.628238
v -0.711392 4.549150 -5.635301
v -0.743132 2.153475 -5.821836
v -0.709540 2.176734 -5.796431
v -0.732751 2.160662 -5.820592
v -0.723387 2.167146 -5.816984
v -0.715955 2.172292 -5.811363
v -0.711184 2.175596 -5.804281
v 0.721308 2.176734 -5.796431
v 0.769406 2.157443 -5.821668
v 0.723663 2.175790 -5.804274
v 0.730494 2.173050 -5.811332
v 0.741135 2.168782 -5.816915
v 0.754543 2.163405 -5.820476
v 0.759185 4.563974 -5.821836
v 0.721308 4.548327 -5.796431
v 0.747480 4.559139 -5.820592
v 0.736921 4.554777 -5.816984
v 0.728542 4.551316 -5.811363
v 0.723162 4.549093 -5.804281
vt 0.322534 0.640077
vt 0.250212 0.640077
vt 0.250212 0.634517
vt 0.322534 0.634849
vt 0.719233 0.452893
vt 0.719268 0.446472
vt 0.719311 0.030708
vt 0.740812 0.030711
vt 0.740814 0.461692
vt 0.322534 0.641573
vt 0.249884 0.641573
vt 0.244541 0.008673
vt 0.247022 0.274802
vt 0.016047 0.276981
vt 0.012331 0.011922
vt 0.170567 0.467051
vt 0.102569 0.467120
vt 0.249884 0.325228
vt 0.438056 0.325201
vt 0.438100 0.628970
vt 0.415703 0.628973
vt 0.343402 0.628984
vt 0.249928 0.628997
vt 0.249884 0.008058
vt 0.438056 0.008031
vt 0.438100 0.311800
vt 0.249928 0.311828
vt 0.636308 0.490592
vt 0.636308 0.663464
vt 0.443849 0.662798
vt 0.443849 0.491258
vt 0.137251 0.489298
vt 0.139558 0.490868
vt 0.133917 0.490855
vt 0.134059 0.486314
vt 0.135246 0.486760
vt 0.134767 0.488727
vt 0.636308 0.318031
vt 0.636308 0.489570
vt 0.541516 0.422392
vt 0.541516 0.317365
vt 0.443849 0.314939
vt 0.443849 0.001140
vt 0.636307 0.000178
vt 0.636307 0.315901
vt 0.007103 0.004663
vt 0.249529 0.000178
vt 0.443494 0.317347
vt 0.443494 0.634162
vt 0.443494 0.000178
vt 0.443494 0.316992
vt 0.006124 0.969389
vt 0.244968 0.990722
vt 0.249529 0.999822
vt 0.000178 0.976463
vt 0.116185 0.475433
vt 0.120513 0.477815
vt 0.120557 0.499167
vt 0.116634 0.501901
vt 0.247575 0.703281
vt 0.170449 0.510284
vt 0.102979 0.510061
vt 0.015412 0.700609
vt 0.152905 0.499266
vt 0.156824 0.502006
vt 0.100702 0.946274
vt 0.247988 0.961494
vt 0.247156 0.832744
vt 0.103827 0.832281
vt 0.905813 0.031945
vt 0.925798 0.032015
vt 0.926254 0.335162
vt 0.904753 0.335087
vt 0.829113 0.446474
vt 0.829131 0.452746
vt 0.809128 0.461693
vt 0.809126 0.030710
vt 0.829111 0.030710
vt 0.443849 0.490237
vt 0.464173 0.422392
vt 0.325658 0.634518
vt 0.328168 0.634517
vt 0.328168 0.637359
vt 0.325658 0.637358
vt 0.867315 0.021821
vt 0.867315 0.446474
vt 0.853274 0.446474
vt 0.853274 0.021821
vt 0.247988 0.961494
vt 0.774676 0.021472
vt 0.774676 0.461764
vt 0.763008 0.461764
vt 0.763007 0.021472
vt 0.890704 0.336413
vt 0.891772 0.031896
vt 0.774792 0.461693
vt 0.774792 0.021472
vt 0.786704 0.021472
vt 0.786704 0.461693
vt 0.443849 0.317365
vt 0.464173 0.317347
vt 0.681067 0.446431
vt 0.682347 0.022081
vt 0.696455 0.021825
vt 0.695107 0.446474
vt 0.937703 0.032003
vt 0.937930 0.335150
vt 0.636662 0.303729
vt 0.636704 0.298979
vt 0.636704 0.308478
vt 0.636833 0.298624
vt 0.636662 0.288840
vt 0.636833 0.288839
vt 0.705202 0.031009
vt 0.705227 0.446473
vt 0.843155 0.446474
vt 0.843153 0.030710
vt 0.881481 0.345117
vt 0.882931 0.021736
vt 0.797223 0.030710
vt 0.797224 0.461693
vt 0.752490 0.461691
vt 0.752488 0.030710
vt 0.946932 0.021478
vt 0.947175 0.345661
vt 0.958844 0.021472
vt 0.958844 0.345656
vt 0.867431 0.346428
vt 0.868889 0.021674
vt 0.328523 0.634518
vt 0.331033 0.634517
vt 0.331033 0.637303
vt 0.328523 0.637302
vt 0.325303 0.637867
vt 0.322889 0.637867
vt 0.322889 0.634517
vt 0.325303 0.634517
vt 0.156659 0.475177
vt 0.153045 0.478255
vt 0.120144 0.478184
vt 0.116535 0.475136
vt 0.136812 0.486211
vt 0.139123 0.486487
vt 0.141864 0.484810
vt 0.142215 0.492538
vt 0.144605 0.483133
vt 0.144875 0.494213
vt 0.147344 0.481449
vt 0.147540 0.495891
vt 0.150068 0.479738
vt 0.150216 0.497573
vt 0.152677 0.477890
vt 0.131321 0.484663
vt 0.128582 0.483007
vt 0.125836 0.481350
vt 0.147357 0.481464
vt 0.123059 0.479709
vt 0.150132 0.479802
vt 0.123125 0.479644
vt 0.123246 0.497493
vt 0.125851 0.481335
vt 0.125924 0.495829
vt 0.128592 0.494169
vt 0.131255 0.492511
vt 0.167723 0.508554
vt 0.167820 0.468778
vt 0.164992 0.506851
vt 0.165069 0.470481
vt 0.162260 0.505191
vt 0.162319 0.472146
vt 0.159535 0.503577
vt 0.159596 0.473781
vt 0.157008 0.475470
vt 0.113924 0.503450
vt 0.111197 0.505041
vt 0.108460 0.506678
vt 0.105719 0.508356
vt 0.113594 0.473763
vt 0.110864 0.472149
vt 0.108104 0.470506
vt 0.105336 0.468824
vt 0.113656 0.473710
vt 0.159534 0.473728
vn 0.3958 0.9184 -0.0010
vn -0.0316 0.0000 -0.9995
vn 1.0000 -0.0029 -0.0000
vn 1.0000 0.0000 0.0000
vn -0.0036 0.0000 1.0000
vn -0.0000 1.0000 -0.0000
vn -0.0000 -1.0000 0.0000
vn -1.0000 -0.0000 -0.0050
vn 0.0021 0.0032 -1.0000
vn 1.0000 0.0000 -0.0050
vn 0.0000 1.0000 -0.0035
vn 0.0000 -0.0000 1.0000
vn 0.0000 -0.0092 1.0000
vn 0.0036 -0.0000 1.0000
vn -0.0000 0.0081 1.0000
vn -1.0000 0.0000 0.0000
vn 0.0000 -0.0000 -1.0000
vn 0.0376 0.9993 0.0000
vn 0.0045 0.0000 1.0000
vn 0.0106 -0.9999 -0.0005
vn -0.0044 -0.0000 -1.0000
vn -0.0489 0.0016 0.9988
vn -1.0000 0.0011 0.0050
vn -1.0000 -0.0010 0.0050
vn 1.0000 0.0000 -0.0042
vn 1.0000 -0.0000 -0.0043
vn 0.0044 0.0000 1.0000
vn -0.0045 -0.0000 -1.0000
vn 0.0106 0.9999 0.0005
vn -0.0000 -1.0000 -0.0069
vn -0.0489 -0.0017 -0.9988
vn -0.0022 -0.0034 -1.0000
vn -0.0003 0.1820 -0.9833
vn -0.0007 0.5171 -0.8559
vn -0.0006 0.7656 -0.6434
vn -0.0003 0.9195 -0.3931
vn -0.0001 0.9913 -0.1315
vn 0.1165 0.0001 -0.9932
vn 0.3560 0.0001 -0.9345
vn 0.5998 0.0000 -0.8001
vn 0.8273 0.0000 -0.5617
vn 0.9785 0.0000 -0.2063
vn 0.0000 -0.9953 -0.0963
vn 0.0000 -0.9547 -0.2975
vn 0.0000 -0.8530 -0.5219
vn 0.0000 -0.6388 -0.7693
vn -0.0000 -0.2476 -0.9689
vn -0.0913 -0.0004 -0.9958
vn -0.2866 -0.0007 -0.9581
vn -0.5075 -0.0007 -0.8616
vn -0.7569 -0.0004 -0.6536
vn -0.9659 -0.0001 -0.2591
vn 0.0001 0.2540 0.9672
vn 0.0001 0.6539 0.7566
vn 0.0001 0.8626 0.5059
vn 0.0000 0.9584 0.2856
vn 0.0000 0.9957 0.0921
vn -0.9733 -0.0000 0.2295
vn -0.7961 -0.0000 0.6052
vn -0.5558 -0.0001 0.8313
vn -0.3209 -0.0001 0.9471
vn -0.1024 -0.0001 0.9947
vn -0.0000 -0.9945 0.1044
vn 0.0000 -0.9473 0.3205
vn 0.0000 -0.8324 0.5542
vn 0.0000 -0.6057 0.7957
vn -0.0000 -0.2252 0.9743
vn 0.9732 -0.0000 0.2299
vn 0.7956 -0.0000 0.6058
vn 0.5551 -0.0000 0.8318
vn 0.3204 -0.0000 0.9473
vn 0.1022 -0.0000 0.9948
usemtl UV
s off
f 1/1/1 2/2/1 34/3/1 31/4/1
f 2/5/2 24/6/2 27/7/2 33/8/2 34/9/2
f 1/1/3 26/10/3 24/11/3 2/2/3
f 3/12/4 5/13/4 6/14/4 4/15/4
f 52/16/5 75/17/5 6/14/5 5/13/5
f 5/18/6 3/19/6 23/20/6 24/21/6 26/22/6 16/23/6
f 15/24/7 17/25/7 4/26/7 6/27/7
f 10/28/8 11/29/8 12/30/8 9/31/8
f 29/32/9 88/33/9 93/34/9 69/35/9 12/36/9 13/37/9
f 29/38/10 13/39/10 19/40/10 18/41/10
f 13/42/11 12/43/11 11/44/11 14/45/11
f 3/12/12 4/15/12 11/46/12 10/47/12
f 23/20/12 3/19/12 10/48/12 30/49/12
f 4/26/12 17/25/12 14/50/12 11/51/12
f 17/52/12 23/53/12 30/54/12 14/55/12
f 76/56/7 70/57/7 94/58/7 64/59/7
f 5/13/13 16/60/13 57/61/13 52/16/13
f 63/62/14 57/61/14 16/60/14 15/63/14
f 75/17/15 63/62/15 15/63/15 6/14/15
f 64/59/16 94/58/16 87/64/16 58/65/16
f 8/66/16 7/67/16 23/53/16 17/52/16
f 20/68/16 28/69/16 15/63/16 16/60/16
f 25/70/7 32/71/7 33/72/7 27/73/7
f 26/74/12 1/75/12 31/76/12 32/77/12 25/78/12
f 14/79/10 22/80/10 19/40/10 13/39/10
f 31/81/7 18/82/7 47/83/7 37/84/7
f 28/85/17 20/86/17 45/87/17 44/88/17
f 23/53/18 7/67/18 24/89/18
f 22/90/19 21/91/19 50/92/19 49/93/19
f 25/70/20 27/73/20 35/94/20 42/95/20
f 18/96/21 19/97/21 48/98/21 47/99/21
f 30/100/10 21/101/10 22/80/10 14/79/10
f 7/102/22 8/103/22 46/104/22 43/105/22
f 33/72/7 32/71/7 38/106/7 40/107/7
f 21/108/23 30/109/23 34/110/23
f 29/111/24 18/112/24 31/113/24
f 43/105/16 46/104/16 35/114/16 36/115/16
f 44/88/16 45/87/16 39/116/16 42/117/16
f 46/118/16 44/119/16 42/95/16 35/94/16
f 47/99/25 48/98/25 38/120/25 37/121/25
f 49/93/26 50/92/26 41/122/26 40/123/26
f 48/124/25 49/125/25 40/107/25 38/106/25
f 32/77/27 31/76/27 37/121/27 38/120/27
f 19/126/6 22/127/6 49/125/6 48/124/6
f 34/9/28 33/8/28 40/123/28 41/122/28
f 8/128/29 28/129/29 44/119/29 46/118/29
f 21/130/30 34/131/30 41/132/30 50/133/30
f 24/134/7 7/135/7 43/136/7 36/137/7
f 26/74/12 25/78/12 42/117/12 39/116/12
f 27/7/31 24/6/31 36/115/31 35/114/31
f 28/69/16 8/66/16 17/52/16 15/63/16
f 51/138/4 82/139/4 70/140/4 76/141/4
f 9/142/32 12/36/32 69/35/32 81/143/32 88/33/32 29/32/32
f 88/33/33 81/143/33 83/144/33 92/145/33
f 92/145/34 83/144/34 84/146/34 91/147/34
f 91/147/35 84/146/35 85/148/35 90/149/35
f 90/149/36 85/148/36 86/150/36 89/151/36
f 89/151/37 86/150/37 82/152/37 87/64/37
f 81/143/38 69/35/38 71/153/38 83/144/38
f 83/144/39 71/153/39 72/154/39 84/146/39
f 84/146/40 72/154/40 73/155/40 85/156/40
f 85/156/41 73/155/41 74/157/41 86/158/41
f 86/158/42 74/157/42 70/140/42 82/139/42
f 94/58/43 70/57/43 74/159/43 98/160/43
f 98/160/44 74/159/44 73/161/44 97/162/44
f 97/162/45 73/161/45 72/154/45 96/163/45
f 96/163/46 72/154/46 71/153/46 95/164/46
f 95/164/47 71/153/47 69/35/47 93/34/47
f 93/34/48 88/33/48 92/145/48 95/164/48
f 95/164/49 92/145/49 91/147/49 96/163/49
f 96/163/50 91/147/50 90/149/50 97/162/50
f 97/162/51 90/149/51 89/151/51 98/160/51
f 98/160/52 89/151/52 87/64/52 94/58/52
f 52/16/53 57/61/53 59/165/53 56/166/53
f 56/166/54 59/165/54 60/167/54 55/168/54
f 55/168/55 60/167/55 61/169/55 54/170/55
f 54/170/56 61/169/56 62/171/56 53/172/56
f 53/172/57 62/171/57 58/65/57 51/173/57
f 64/59/58 58/65/58 62/171/58 68/174/58
f 68/174/59 62/171/59 61/169/59 67/175/59
f 67/175/60 61/169/60 60/167/60 66/176/60
f 66/176/61 60/167/61 59/165/61 65/177/61
f 65/177/62 59/165/62 57/61/62 63/62/62
f 76/56/63 64/59/63 68/174/63 80/178/63
f 80/178/64 68/174/64 67/175/64 79/179/64
f 79/179/65 67/175/65 66/176/65 78/180/65
f 78/180/66 66/176/66 65/177/66 77/181/66
f 77/181/67 65/177/67 63/62/67 75/17/67
f 51/138/68 76/141/68 80/182/68 53/183/68
f 53/183/69 80/182/69 79/179/69 54/170/69
f 54/170/70 79/179/70 78/180/70 55/168/70
f 55/168/71 78/180/71 77/181/71 56/166/71
f 56/166/72 77/181/72 75/17/72 52/16/72
f 58/65/6 87/64/6 82/152/6 51/173/6
