# Blender v2.80 (sub 35) OBJ File: 'Concept stanza.blend'
# www.blender.org
mtllib Armadio.mtl
o Pomello_comodino.004_Sphere.006
v -4.539881 2.097523 -4.021655
v -4.574595 2.118026 -4.038033
v -4.617543 2.120863 -4.029911
v -4.643141 2.104916 -4.002849
v -4.680048 2.119212 -4.010808
v -4.541763 2.068709 -4.030249
v -4.578072 2.064785 -4.053911
v -4.621313 2.063132 -4.047128
v -4.645771 2.064652 -4.014856
v -4.683814 2.061547 -4.028006
v -4.537013 2.042136 -4.016872
v -4.569295 2.015685 -4.029194
v -4.611796 2.009890 -4.020327
v -4.639133 2.027520 -3.996164
v -4.674308 2.008366 -4.001235
v -4.528414 2.033370 -3.989361
v -4.553406 1.999487 -3.978361
v -4.594567 1.992326 -3.965206
v -4.627117 2.015270 -3.957721
v -4.657098 1.990823 -3.946178
v -4.521003 2.047546 -3.963832
v -4.539712 2.025681 -3.931190
v -4.579719 2.020729 -3.914056
v -4.616761 2.035079 -3.922048
v -4.642267 2.019193 -3.895087
v -4.519950 2.072802 -3.995938
v -4.519121 2.076360 -3.955239
v -4.536236 2.078922 -3.915312
v -4.575948 2.078461 -3.896839
v -4.614131 2.075343 -3.910040
v -4.638501 2.076858 -3.877889
v -4.523871 2.102932 -3.968616
v -4.545012 2.128022 -3.940028
v -4.585465 2.131702 -3.923640
v -4.620769 2.112476 -3.928732
v -4.648007 2.130038 -3.904660
v -4.532470 2.111699 -3.996126
v -4.560901 2.144220 -3.990861
v -4.602695 2.149266 -3.978761
v -4.632785 2.124725 -3.967175
v -4.665216 2.147582 -3.959717
v -7.130508 -0.335537 -1.030386
v -7.130508 4.617777 -1.030386
v -7.130508 -0.335538 -5.640934
v -7.130508 4.617777 -5.640934
v -5.130508 -0.243901 -1.150120
v -5.130508 4.526140 -1.150120
v -5.130508 -0.243900 -5.521199
v -5.130508 4.526140 -5.521199
v -7.130508 -0.335537 -3.335660
v -7.130508 4.617778 -3.335660
v -5.130508 -0.243901 -3.335660
v -5.130508 4.617777 -5.640934
v -5.130508 -0.335537 -5.640934
v -5.130508 -0.335537 -3.335660
v -5.130508 4.617777 -3.335660
v -5.130508 4.617777 -1.030386
v -5.130508 -0.335537 -1.030386
v -5.130508 4.526140 -3.335660
v -4.538262 -0.243901 -3.587968
v -4.538262 4.526140 -3.587968
v -7.038133 -0.243162 -1.151086
v -7.038133 4.525402 -1.151085
v -7.038133 -0.243162 -5.520234
v -7.038133 4.525402 -5.520234
v -5.290508 -0.243900 -1.150121
v -5.290508 4.526140 -1.150121
v -7.017375 -0.222404 -3.335660
v -7.017375 4.504644 -3.335660
v -5.222884 4.525402 -5.520234
v -5.222884 -0.243162 -5.520234
v -5.243642 4.504644 -3.335660
v -5.222884 4.525402 -1.151085
v -5.222884 -0.243161 -1.151086
v -5.290508 4.526140 -3.335660
v -5.290508 -0.243900 -3.335660
v -4.605751 -0.243900 -3.534827
v -4.605751 4.526140 -3.534827
v -5.008040 2.102921 -3.004495
v -5.035972 2.130826 -3.022792
v -5.079342 2.135954 -3.026155
v -5.112091 2.115997 -3.013072
v -5.144722 2.135875 -3.026106
v -5.008039 2.078018 -3.021450
v -5.035970 2.084812 -3.054121
v -5.079340 2.086059 -3.060127
v -5.112089 2.081198 -3.036764
v -5.144719 2.086038 -3.060038
v -5.008038 2.048420 -3.015831
v -5.035967 2.030122 -3.043737
v -5.079337 2.026757 -3.048868
v -5.112087 2.039839 -3.028912
v -5.144716 2.026803 -3.048791
v -5.008037 2.031465 -2.990928
v -5.035966 1.998793 -2.997723
v -5.079335 1.992785 -2.998973
v -5.112085 2.016146 -2.994113
v -5.144714 1.992871 -2.998954
v -5.008037 2.037085 -2.961330
v -5.035966 2.009177 -2.943033
v -5.079336 2.004045 -2.939670
v -5.112086 2.023999 -2.952754
v -5.144715 2.004117 -2.939720
v -4.997068 2.070003 -2.982913
v -5.008038 2.061987 -2.944375
v -5.035968 2.055191 -2.911705
v -5.079338 2.053940 -2.905698
v -5.112088 2.058797 -2.929061
v -5.144718 2.053955 -2.905787
v -5.008039 2.091585 -2.949995
v -5.035971 2.109880 -2.922088
v -5.079341 2.113242 -2.916958
v -5.112090 2.100157 -2.936914
v -5.144720 2.113189 -2.917034
v -5.008040 2.108540 -2.974897
v -5.035973 2.141210 -2.968102
v -5.079342 2.147214 -2.966853
v -5.112091 2.123849 -2.971712
v -5.144722 2.147121 -2.966871
vt 0.571269 0.089084
vt 0.546945 0.087031
vt 0.548676 0.059821
vt 0.571269 0.057788
vt 0.474405 0.069720
vt 0.485720 0.049155
vt 0.493618 0.062316
vt 0.525630 0.081573
vt 0.528280 0.057984
vt 0.505268 0.035014
vt 0.511133 0.059098
vt 0.527427 0.032194
vt 0.545314 0.036080
vt 0.474001 0.088042
vt 0.460686 0.095212
vt 0.447129 0.083983
vt 0.466571 0.064874
vt 0.564398 0.026944
vt 0.474001 0.111318
vt 0.430804 0.076039
vt 0.446674 0.047169
vt 0.454510 0.106287
vt 0.438622 0.102327
vt 0.408753 0.066055
vt 0.420480 0.041380
vt 0.387471 0.055254
vt 0.404880 0.026944
vt 0.422462 0.099296
vt 0.454633 0.118939
vt 0.401135 0.093454
vt 0.377514 0.087432
vt 0.436875 0.122156
vt 0.419524 0.123063
vt 0.399370 0.120783
vt 0.374594 0.120192
vt 0.462741 0.132357
vt 0.442753 0.147077
vt 0.487488 0.085854
vt 0.474046 0.092919
vt 0.419751 0.149999
vt 0.401271 0.145395
vt 0.500998 0.097138
vt 0.481259 0.116423
vt 0.380010 0.154035
vt 0.517384 0.105063
vt 0.501429 0.134707
vt 0.493709 0.074830
vt 0.539558 0.114615
vt 0.528591 0.140744
vt 0.509508 0.078728
vt 0.563956 0.123734
vt 0.546779 0.155792
vt 0.453067 0.549862
vt 0.453067 0.829185
vt 0.323071 0.829185
vt 0.323070 0.549862
vt 0.323070 0.829718
vt 0.602393 0.829718
vt 0.602393 0.942500
vt 0.323070 0.942500
vt 0.275406 0.516081
vt 0.275405 0.778569
vt 0.155137 0.778569
vt 0.155136 0.516081
vt 0.775706 0.416868
vt 0.775706 0.137545
vt 0.888488 0.137545
vt 0.888488 0.416868
vt 0.858805 0.756058
vt 0.971587 0.756058
vt 0.971588 0.886055
vt 0.858805 0.886055
vt 0.135319 0.972621
vt 0.135319 0.859839
vt 0.265315 0.859839
vt 0.265315 0.972621
vt 0.005322 0.972621
vt 0.005322 0.859839
vt 0.858805 0.626061
vt 0.971588 0.626061
vt 0.267675 0.192348
vt 0.267675 0.446685
vt 0.159867 0.446685
vt 0.159867 0.192348
vt 0.583064 0.549862
vt 0.583064 0.829185
vt 0.328404 0.542360
vt 0.606014 0.542360
vt 0.611347 0.549328
vt 0.323070 0.549329
vt 0.606014 0.415162
vt 0.611347 0.415162
vt 0.328407 0.287965
vt 0.328406 0.415160
vt 0.323073 0.415160
vt 0.323073 0.280997
vt 0.606014 0.287965
vt 0.611347 0.280996
vt 0.328404 0.415150
vt 0.323071 0.415150
vt 0.735076 0.627232
vt 0.858272 0.626061
vt 0.858272 0.894966
vt 0.735076 0.893795
vt 0.880785 0.895499
vt 0.880785 0.997863
vt 0.611880 0.997863
vt 0.611880 0.895499
vt 0.326636 0.010359
vt 0.327787 0.116372
vt 0.096409 0.118883
vt 0.095258 0.012870
vt 0.090748 0.306786
vt 0.019214 0.305880
vt 0.021595 0.117966
vt 0.093128 0.118872
vt 0.006082 0.414694
vt 0.002708 0.308759
vt 0.089842 0.412812
vt 0.993470 0.264705
vt 0.994678 0.391864
vt 0.889021 0.391864
vt 0.890229 0.264705
vt 0.994678 0.137545
vt 0.889021 0.137545
vt 0.007469 0.520673
vt 0.095508 0.518690
vt 0.611880 0.247086
vt 0.729123 0.247044
vt 0.729124 0.516031
vt 0.611881 0.515990
vt 0.611880 0.626061
vt 0.611880 0.894966
vt 0.092757 0.012891
vt 0.094028 0.306869
vt 0.337717 0.415150
vt 0.340713 0.415327
vt 0.333781 0.542304
vt 0.606014 0.137545
vt 0.596702 0.415162
vt 0.596703 0.137545
vt 0.775173 0.140725
vt 0.733968 0.247044
vt 0.771046 0.137545
vt 0.733968 0.516031
vt 0.775173 0.622348
vt 0.771046 0.625528
vt 0.587251 0.561792
vt 0.583597 0.558138
vt 0.587193 0.549862
vt 0.587251 0.552769
vt 0.600637 0.542304
vt 0.571269 0.089084
vt 0.546945 0.087031
vt 0.548676 0.059821
vt 0.571269 0.057788
vt 0.474405 0.069720
vt 0.485720 0.049155
vt 0.493618 0.062316
vt 0.525630 0.081573
vt 0.528280 0.057984
vt 0.505268 0.035014
vt 0.511133 0.059098
vt 0.527427 0.032194
vt 0.545314 0.036080
vt 0.474001 0.088042
vt 0.460686 0.095212
vt 0.447129 0.083983
vt 0.466571 0.064874
vt 0.564398 0.026944
vt 0.474001 0.111318
vt 0.430804 0.076039
vt 0.446674 0.047169
vt 0.454510 0.106287
vt 0.438622 0.102327
vt 0.408753 0.066055
vt 0.420480 0.041380
vt 0.387471 0.055254
vt 0.404880 0.026944
vt 0.422462 0.099296
vt 0.454633 0.118939
vt 0.401135 0.093454
vt 0.377514 0.087432
vt 0.436875 0.122156
vt 0.419524 0.123063
vt 0.399370 0.120783
vt 0.374594 0.120192
vt 0.462741 0.132357
vt 0.442753 0.147077
vt 0.487488 0.085854
vt 0.474046 0.092919
vt 0.419751 0.149999
vt 0.401271 0.145395
vt 0.500998 0.097138
vt 0.481259 0.116423
vt 0.380010 0.154035
vt 0.517384 0.105063
vt 0.501429 0.134707
vt 0.493709 0.074830
vt 0.539558 0.114615
vt 0.528591 0.140744
vt 0.509508 0.078728
vt 0.563956 0.123734
vt 0.546779 0.155792
vn 0.5215 0.8185 -0.2409
vn 0.3693 0.5275 -0.7651
vn 0.9564 0.0244 -0.2912
vn 0.6805 -0.0280 -0.7323
vn 0.7046 0.3415 -0.6221
vn -0.2636 0.9645 -0.0188
vn -0.4471 0.6134 -0.6510
vn -0.7570 0.4987 -0.4222
vn -0.6048 0.7898 0.1020
vn 0.1756 -0.0757 -0.9815
vn 0.2183 0.5773 -0.7868
vn -0.4937 -0.1002 -0.8639
vn -0.7956 -0.0929 -0.5986
vn 0.7414 -0.3687 -0.5607
vn 0.2833 -0.6779 -0.6784
vn 0.3307 -0.0642 -0.9416
vn -0.3761 -0.7582 -0.5326
vn 0.8516 -0.4811 -0.2080
vn 0.4782 -0.8766 -0.0549
vn -0.6981 -0.6385 -0.3239
vn 0.4282 -0.6098 -0.6669
vn -0.1631 -0.9753 0.1487
vn 0.9466 -0.2994 0.1193
vn 0.6048 -0.7898 -0.1020
vn 0.6461 -0.5553 0.5236
vn -0.5216 -0.8185 0.2409
vn 0.0204 -0.6243 0.7809
vn 0.7570 -0.4988 0.4222
vn 0.9708 0.0701 0.2295
vn -0.3694 -0.5274 0.7651
vn 0.6888 0.0977 0.7184
vn 0.9099 0.4108 0.0580
vn 0.0670 0.0893 0.9937
vn -0.3308 0.0642 0.9415
vn 0.5811 0.6999 0.4152
vn 0.7956 0.0929 0.5987
vn -0.0506 0.7474 0.6625
vn 0.7996 0.5232 -0.2947
vn -0.4283 0.6098 0.6669
vn 0.3862 0.8986 -0.2082
vn 0.6981 0.6385 0.3240
vn -1.0000 -0.0000 0.0000
vn -0.0000 0.0000 -1.0000
vn 1.0000 0.0000 0.0000
vn 0.0000 0.0000 1.0000
vn 0.0000 -1.0000 0.0000
vn 0.0000 1.0000 0.0000
vn 0.9973 0.0000 -0.0738
vn 0.9561 0.0000 -0.2929
vn 1.0000 0.0000 -0.0095
vn 0.0061 1.0000 -0.0000
vn 0.0061 1.0000 0.0045
vn 0.0050 1.0000 0.0001
vn 0.0000 -1.0000 0.0095
vn 0.0000 -1.0000 -0.0095
vn 0.0061 1.0000 -0.0045
vn 0.0045 1.0000 -0.0021
vn -0.9549 0.0000 0.2968
vn 1.0000 0.0000 0.0095
vn 0.1906 0.9817 -0.0056
vn 0.0143 -0.0000 0.9999
vn 0.0109 -0.9999 0.0000
vn 0.4169 0.9089 0.0126
vn -0.0042 -1.0000 0.0011
vn -0.0042 1.0000 0.0011
vn 0.6186 0.0000 0.7857
vn 0.0029 1.0000 0.0002
vn 0.0029 -1.0000 0.0002
vn 0.5888 0.7913 0.1646
vn 0.5888 0.6760 -0.4432
vn 0.8633 0.1028 -0.4941
vn 0.8633 0.4221 -0.2767
vn -0.2231 0.9544 0.1985
vn -0.2231 0.8152 -0.5345
vn -0.5889 0.6759 -0.4431
vn -0.5889 0.7912 0.1646
vn 0.4519 0.1817 -0.8734
vn 0.4519 0.7460 -0.4891
vn -0.2231 0.1985 -0.9544
vn -0.5889 0.1645 -0.7913
vn 0.8633 -0.2767 -0.4221
vn 0.4519 -0.4891 -0.7460
vn 0.5888 0.1646 -0.7913
vn -0.2230 -0.5345 -0.8152
vn 0.8633 -0.4941 -0.1028
vn 0.4520 -0.8734 -0.1817
vn -0.5889 -0.4432 -0.6759
vn 0.5889 -0.4431 -0.6759
vn -0.2230 -0.9544 -0.1985
vn 0.8633 -0.4220 0.2767
vn 0.5889 -0.7913 -0.1646
vn 0.4519 -0.7460 0.4891
vn -0.5889 -0.7913 -0.1646
vn -0.2230 -0.8152 0.5345
vn 0.5889 -0.6759 0.4432
vn 0.8633 -0.1027 0.4941
vn -0.5889 -0.6759 0.4431
vn 0.4519 -0.1816 0.8734
vn 0.8633 0.2768 0.4221
vn -0.2231 -0.1985 0.9544
vn -0.5889 -0.1646 0.7913
vn 0.4519 0.4891 0.7460
vn 0.5888 -0.1646 0.7913
vn -0.2231 0.5345 0.8152
vn 0.8633 0.4942 0.1028
vn -0.5889 0.4431 0.6759
vn 0.4519 0.8734 0.1817
vn 0.5888 0.4432 0.6759
usemtl UV
s 1
f 41/1/1 40/2/1 4/3/2 5/4/2
f 26/5/3 6/6/4 1/7/5
f 39/8/6 3/9/7 4/3/8 40/2/9
f 1/7/5 6/6/4 7/10/10 2/11/11
f 2/11/11 7/10/10 8/12/12 3/9/7
f 3/9/7 8/12/12 9/13/13 4/3/8
f 6/14/4 11/15/14 12/16/15 7/17/10
f 4/3/2 9/13/16 10/18/16 5/4/2
f 26/19/3 11/15/14 6/14/4
f 7/17/10 12/16/15 13/20/17 8/21/12
f 11/15/14 16/22/18 17/23/19 12/16/15
f 8/21/12 13/20/17 14/24/20 9/25/13
f 9/25/16 14/24/21 15/26/21 10/27/16
f 26/19/3 16/22/18 11/15/14
f 12/16/15 17/23/19 18/28/22 13/20/17
f 26/19/3 21/29/23 16/22/18
f 14/24/21 19/30/24 20/31/24 15/26/21
f 16/22/18 21/29/23 22/32/25 17/23/19
f 13/20/17 18/28/22 19/30/26 14/24/20
f 17/23/19 22/32/25 23/33/27 18/28/22
f 19/30/24 24/34/28 25/35/28 20/31/24
f 26/19/3 27/36/29 21/29/23
f 18/28/22 23/33/27 24/34/30 19/30/26
f 21/29/23 27/36/29 28/37/31 22/32/25
f 26/5/3 32/38/32 27/39/29
f 22/32/25 28/37/31 29/40/33 23/33/27
f 23/33/27 29/40/33 30/41/34 24/34/30
f 27/39/29 32/38/32 33/42/35 28/43/31
f 24/34/28 30/41/36 31/44/36 25/35/28
f 28/43/31 33/42/35 34/45/37 29/46/33
f 26/5/3 37/47/38 32/38/32
f 29/46/33 34/45/37 35/48/39 30/49/34
f 32/38/32 37/47/38 38/50/40 33/42/35
f 30/49/36 35/48/41 36/51/41 31/52/36
f 33/42/35 38/50/40 39/8/6 34/45/37
f 34/45/37 39/8/6 40/2/9 35/48/39
f 26/5/3 1/7/5 37/47/38
f 35/48/41 40/2/1 41/1/1 36/51/41
f 37/47/38 1/7/5 2/11/11 38/50/40
f 38/50/40 2/11/11 3/9/7 39/8/6
f 50/53/42 51/54/42 45/55/42 44/56/42
f 44/57/43 45/58/43 53/59/43 54/60/43
f 52/61/44 59/62/44 47/63/44 46/64/44
f 58/65/45 57/66/45 43/67/45 42/68/45
f 50/69/46 55/70/46 58/71/46 42/72/46
f 56/73/47 51/74/47 43/75/47 57/76/47
f 53/77/47 45/78/47 51/74/47 56/73/47
f 44/79/46 54/80/46 55/70/46 50/69/46
f 48/81/48 49/82/48 61/83/49 60/84/49
f 42/85/42 43/86/42 51/54/42 50/53/42
f 49/87/48 48/88/48 54/89/44 53/90/44
f 48/88/48 52/91/44 55/92/44 54/89/44
f 47/93/44 59/94/44 56/95/44 57/96/44
f 46/97/44 47/93/44 57/96/44 58/98/44
f 52/91/44 46/97/44 58/98/44 55/92/44
f 59/99/44 49/87/48 53/90/44 56/100/44
f 68/101/44 64/102/50 65/103/50 69/104/44
f 64/105/45 71/106/45 70/107/45 65/108/45
f 76/109/42 66/110/42 67/111/42 75/112/42
f 74/113/43 62/114/43 63/115/43 73/116/43
f 68/117/51 62/118/52 74/113/52 76/119/53
f 72/120/46 73/121/54 63/122/54 69/123/46
f 70/124/55 72/120/46 69/123/46 65/125/55
f 64/126/56 68/117/51 76/119/53 71/127/57
f 71/128/58 77/129/58 78/130/58 70/131/58
f 62/132/59 68/101/44 69/104/44 63/133/59
f 67/111/60 73/116/60 72/134/60 75/112/60
f 66/135/61 74/113/61 73/116/61 67/111/61
f 76/119/62 74/113/62 66/135/62
f 75/136/63 72/137/63 70/138/63
f 59/139/43 52/91/43 76/140/43 75/141/43
f 48/142/64 60/143/64 77/129/64 71/144/64
f 61/145/65 49/146/65 70/147/65 78/130/65
f 56/148/43 59/149/43 75/150/43 72/151/43
f 60/143/66 61/145/66 78/130/66 77/129/66
f 52/91/67 48/88/67 71/152/57 76/140/53
f 49/87/68 59/99/68 75/136/68 70/138/68
f 119/153/69 118/154/69 82/155/70 83/156/70
f 104/157/44 84/158/71 79/159/72
f 117/160/73 81/161/74 82/155/75 118/154/76
f 79/159/72 84/158/71 85/162/77 80/163/78
f 80/163/78 85/162/77 86/164/79 81/161/74
f 81/161/74 86/164/79 87/165/80 82/155/75
f 84/166/71 89/167/81 90/168/82 85/169/77
f 82/155/70 87/165/83 88/170/83 83/156/70
f 104/171/44 89/167/81 84/166/71
f 85/169/77 90/168/82 91/172/84 86/173/79
f 89/167/81 94/174/85 95/175/86 90/168/82
f 86/173/79 91/172/84 92/176/87 87/177/80
f 87/177/83 92/176/88 93/178/88 88/179/83
f 104/171/44 94/174/85 89/167/81
f 90/168/82 95/175/86 96/180/89 91/172/84
f 104/171/44 99/181/90 94/174/85
f 92/176/88 97/182/91 98/183/91 93/178/88
f 94/174/85 99/181/90 100/184/92 95/175/86
f 91/172/84 96/180/89 97/182/93 92/176/87
f 95/175/86 100/184/92 101/185/94 96/180/89
f 97/182/91 102/186/95 103/187/95 98/183/91
f 104/171/44 105/188/96 99/181/90
f 96/180/89 101/185/94 102/186/97 97/182/93
f 99/181/90 105/188/96 106/189/98 100/184/92
f 104/157/44 110/190/99 105/191/96
f 100/184/92 106/189/98 107/192/100 101/185/94
f 101/185/94 107/192/100 108/193/101 102/186/97
f 105/191/96 110/190/99 111/194/102 106/195/98
f 102/186/95 108/193/103 109/196/103 103/187/95
f 106/195/98 111/194/102 112/197/104 107/198/100
f 104/157/44 115/199/105 110/190/99
f 107/198/100 112/197/104 113/200/106 108/201/101
f 110/190/99 115/199/105 116/202/107 111/194/102
f 108/201/103 113/200/108 114/203/108 109/204/103
f 111/194/102 116/202/107 117/160/73 112/197/104
f 112/197/104 117/160/73 118/154/76 113/200/106
f 104/157/44 79/159/72 115/199/105
f 113/200/108 118/154/69 119/153/69 114/203/108
f 115/199/105 79/159/72 80/163/78 116/202/107
f 116/202/107 80/163/78 81/161/74 117/160/73
