# Blender v2.79 (sub 0) OBJ File: ''
# www.blender.org
mtllib Materasso.mtl
o Materasso_Cube.002
v 2.082357 0.101318 1.087095
v 2.082357 0.494049 1.087095
v -2.115496 0.494049 1.087095
v -2.115496 0.101318 1.087095
v 2.182277 0.101319 -0.986320
v 2.182277 0.494050 -0.986320
v 2.182277 0.494049 0.987177
v 2.182277 0.101318 0.987176
v 2.082357 0.593970 -0.986320
v -2.115496 0.593970 -0.986320
v -2.115496 0.593969 0.987177
v 2.082357 0.593969 0.987177
v -2.215415 0.101318 0.987176
v -2.215415 0.494049 0.987177
v -2.215415 0.494050 -0.986320
v -2.215415 0.101319 -0.986320
v -2.115496 0.101319 -1.086238
v -2.115496 0.494050 -1.086238
v 2.082357 0.494050 -1.086238
v 2.082357 0.101319 -1.086238
v -2.115496 0.001399 0.987176
v -2.115496 0.030664 1.057829
v -2.173184 0.043630 1.044864
v -2.186150 0.030664 0.987176
v -2.186150 0.101318 1.057829
v -2.115496 0.564703 1.057830
v -2.173184 0.551738 1.044865
v -2.186150 0.494049 1.057830
v -2.186150 0.564703 0.987177
v -2.115496 0.001400 -0.986320
v -2.186150 0.030665 -0.986320
v -2.173184 0.043631 -1.044009
v -2.115496 0.030665 -1.056973
v -2.186150 0.101319 -1.056973
v -2.115496 0.564704 -1.056973
v -2.173184 0.551739 -1.044009
v -2.186150 0.564704 -0.986320
v -2.186150 0.494050 -1.056973
v 2.082357 0.001399 0.987176
v 2.153011 0.030664 0.987176
v 2.140046 0.043630 1.044864
v 2.082357 0.030664 1.057829
v 2.153011 0.101318 1.057829
v 2.082357 0.564703 1.057830
v 2.140046 0.551738 1.044865
v 2.153011 0.564703 0.987177
v 2.153011 0.494049 1.057830
v 2.082357 0.001400 -0.986320
v 2.082357 0.030665 -1.056973
v 2.140046 0.043631 -1.044009
v 2.153011 0.030665 -0.986320
v 2.153011 0.101319 -1.056973
v 2.153011 0.564704 -0.986320
v 2.140046 0.551739 -1.044009
v 2.082357 0.564704 -1.056973
v 2.153011 0.494050 -1.056973
vt 0.551791 0.743207
vt 0.506976 0.743022
vt 0.507627 0.256793
vt 0.552442 0.256978
vt 0.552964 0.990756
vt 0.506397 0.990624
vt 0.507032 0.760499
vt 0.551840 0.760680
vt 0.009079 0.497109
vt 0.009147 0.010578
vt 0.239517 0.009173
vt 0.239449 0.495704
vt 0.552386 0.239501
vt 0.507578 0.239320
vt 0.506454 0.009244
vt 0.553021 0.009376
vt 0.617185 0.494413
vt 0.571310 0.494268
vt 0.571368 0.009117
vt 0.617243 0.009263
vt 0.257743 0.010578
vt 0.248710 0.010175
vt 0.250030 0.002923
vt 0.257280 0.001594
vt 0.552051 0.248302
vt 0.559487 0.248293
vt 0.561519 0.255851
vt 0.561622 0.240668
vt 0.498428 0.255630
vt 0.500542 0.248020
vt 0.507970 0.248003
vt 0.239896 0.000114
vt 0.247166 0.001447
vt 0.248482 0.008718
vt 0.498485 0.240470
vt 0.488113 0.009173
vt 0.488492 0.000114
vt 0.495762 0.001447
vt 0.497077 0.008718
vt 0.553415 0.000155
vt 0.560800 0.001533
vt 0.562112 0.008928
vt 0.626212 0.494856
vt 0.624858 0.502121
vt 0.617583 0.503416
vt 0.000114 0.010175
vt 0.001434 0.002923
vt 0.008684 0.001594
vt 0.570924 0.503358
vt 0.563644 0.502007
vt 0.562341 0.494720
vt 0.497306 0.008826
vt 0.498655 0.001451
vt 0.506032 0.000114
vt 0.257675 0.497109
vt 0.257296 0.506168
vt 0.250026 0.504836
vt 0.248710 0.497564
vt 0.551448 0.751997
vt 0.558876 0.751980
vt 0.560933 0.759530
vt 0.560990 0.744370
vt 0.248482 0.496107
vt 0.247162 0.503360
vt 0.239912 0.504689
vt 0.507367 0.751698
vt 0.499931 0.751707
vt 0.497899 0.744149
vt 0.497796 0.759332
vt 0.488045 0.495704
vt 0.497077 0.496107
vt 0.495757 0.503360
vt 0.488508 0.504689
vt 0.617629 0.000173
vt 0.624909 0.001523
vt 0.626212 0.008810
vt 0.562112 0.991174
vt 0.560763 0.998549
vt 0.553386 0.999886
vt 0.008700 0.506168
vt 0.001430 0.504836
vt 0.000114 0.497564
vt 0.506003 0.999846
vt 0.498618 0.998467
vt 0.497306 0.991072
vt 0.562341 0.008675
vt 0.563694 0.001410
vt 0.570970 0.000114
vn 0.1794 -0.1794 0.9673
vn 0.1794 0.1794 0.9673
vn -0.1794 0.1794 0.9673
vn -0.1794 -0.1794 0.9673
vn 0.9673 -0.1794 -0.1794
vn 0.9673 0.1794 -0.1794
vn 0.9673 0.1794 0.1794
vn 0.9673 -0.1794 0.1794
vn 0.1794 0.9673 -0.1794
vn -0.1794 0.9673 -0.1794
vn -0.1794 0.9673 0.1794
vn 0.1794 0.9673 0.1794
vn -0.9673 -0.1794 0.1794
vn -0.9673 0.1794 0.1794
vn -0.9673 0.1794 -0.1794
vn -0.9673 -0.1794 -0.1794
vn -0.1794 -0.1794 -0.9673
vn -0.1794 0.1794 -0.9673
vn 0.1794 0.1794 -0.9673
vn 0.1794 -0.1794 -0.9673
vn -0.1794 -0.9673 0.1794
vn -0.1726 -0.6965 0.6965
vn -0.5773 -0.5773 0.5774
vn -0.6965 -0.6965 0.1726
vn -0.6965 -0.1726 0.6965
vn -0.1726 0.6965 0.6965
vn -0.5773 0.5773 0.5774
vn -0.6965 0.1726 0.6965
vn -0.6965 0.6965 0.1726
vn -0.1794 -0.9673 -0.1794
vn -0.6965 -0.6965 -0.1726
vn -0.5773 -0.5773 -0.5774
vn -0.1726 -0.6965 -0.6965
vn -0.6965 -0.1726 -0.6965
vn -0.1726 0.6965 -0.6965
vn -0.5773 0.5773 -0.5774
vn -0.6965 0.6965 -0.1726
vn -0.6965 0.1726 -0.6965
vn 0.1794 -0.9673 0.1794
vn 0.6965 -0.6965 0.1726
vn 0.5773 -0.5773 0.5774
vn 0.1726 -0.6965 0.6965
vn 0.6965 -0.1726 0.6965
vn 0.1726 0.6965 0.6965
vn 0.5773 0.5773 0.5774
vn 0.6965 0.6965 0.1726
vn 0.6965 0.1726 0.6965
vn 0.1794 -0.9673 -0.1794
vn 0.1726 -0.6965 -0.6965
vn 0.5773 -0.5773 -0.5774
vn 0.6965 -0.6965 -0.1726
vn 0.6965 -0.1726 -0.6965
vn 0.6965 0.6965 -0.1726
vn 0.5773 0.5773 -0.5774
vn 0.1726 0.6965 -0.6965
vn 0.6965 0.1726 -0.6965
usemtl None
s 1
f 1/1/1 2/2/2 3/3/3 4/4/4
f 5/5/5 6/6/6 7/7/7 8/8/8
f 9/9/9 10/10/10 11/11/11 12/12/12
f 13/13/13 14/14/14 15/15/15 16/16/16
f 17/17/17 18/18/18 19/19/19 20/20/20
f 21/21/21 22/22/22 23/23/23 24/24/24
f 4/4/4 25/25/25 23/26/23 22/27/22
f 13/13/13 24/28/24 23/26/23 25/25/25
f 3/3/3 26/29/26 27/30/27 28/31/28
f 11/11/11 29/32/29 27/33/27 26/34/26
f 14/14/14 28/31/28 27/30/27 29/35/29
f 30/36/30 31/37/31 32/38/32 33/39/33
f 16/16/16 34/40/34 32/41/32 31/42/31
f 17/17/17 33/43/33 32/44/32 34/45/34
f 10/10/10 35/46/35 36/47/36 37/48/37
f 18/18/18 38/49/38 36/50/36 35/51/35
f 15/15/15 37/52/37 36/53/36 38/54/38
f 39/55/39 40/56/40 41/57/41 42/58/42
f 8/8/8 43/59/43 41/60/41 40/61/40
f 1/1/1 42/62/42 41/60/41 43/59/43
f 12/12/12 44/63/44 45/64/45 46/65/46
f 2/2/2 47/66/47 45/67/45 44/68/44
f 7/7/7 46/69/46 45/67/45 47/66/47
f 48/70/48 49/71/49 50/72/50 51/73/51
f 20/20/20 52/74/52 50/75/50 49/76/49
f 5/5/5 51/77/51 50/78/50 52/79/52
f 9/9/9 53/80/53 54/81/54 55/82/55
f 6/6/6 56/83/56 54/84/54 53/85/53
f 19/19/19 55/86/55 54/87/54 56/88/56
f 30/36/30 21/21/21 24/24/24 31/37/31
f 31/42/31 24/28/24 13/13/13 16/16/16
f 4/4/4 3/3/3 28/31/28 25/25/25
f 25/25/25 28/31/28 14/14/14 13/13/13
f 11/11/11 10/10/10 37/48/37 29/32/29
f 29/35/29 37/52/37 15/15/15 14/14/14
f 18/18/18 17/17/17 34/45/34 38/49/38
f 38/54/38 34/40/34 16/16/16 15/15/15
f 48/70/48 30/36/30 33/39/33 49/71/49
f 49/76/49 33/43/33 17/17/17 20/20/20
f 10/10/10 9/9/9 55/82/55 35/46/35
f 35/51/35 55/86/55 19/19/19 18/18/18
f 6/6/6 5/5/5 52/79/52 56/83/56
f 56/88/56 52/74/52 20/20/20 19/19/19
f 39/55/39 48/70/48 51/73/51 40/56/40
f 40/61/40 51/77/51 5/5/5 8/8/8
f 9/9/9 12/12/12 46/65/46 53/80/53
f 53/85/53 46/69/46 7/7/7 6/6/6
f 2/2/2 1/1/1 43/59/43 47/66/47
f 47/66/47 43/59/43 8/8/8 7/7/7
f 21/21/21 39/55/39 42/58/42 22/22/22
f 22/27/22 42/62/42 1/1/1 4/4/4
f 12/12/12 11/11/11 26/34/26 44/63/44
f 44/68/44 26/29/26 3/3/3 2/2/2
f 30/36/30 48/70/48 39/55/39 21/21/21
